<?xml version="1.0" encoding="utf-8"?>
<!-- Generator: Adobe Illustrator 21.0.0, SVG Export Plug-In . SVG Version: 6.00 Build 0)  -->
<svg version="1.1" id="Ebene_1" xmlns="http://www.w3.org/2000/svg" xmlns:xlink="http://www.w3.org/1999/xlink" x="0px" y="0px"
	 viewBox="0 0 24 24" style="enable-background:new 0 0 24 24;" xml:space="preserve">
<style type="text/css">
	.st0{fill:none;stroke:#ffffff;stroke-linejoin:round;stroke-miterlimit:10;}
	.st1{fill:none;stroke:#ffffff;stroke-linecap:round;stroke-linejoin:round;stroke-miterlimit:10;}
	.st2{fill:none;}
</style>
<g id="Outline_Icons_1_">
	<g id="Outline_Icons">
		<g>
			<g>
				<circle class="st0" cx="5.5" cy="18.5" r="5"/>
				<line class="st1" x1="5.5" y1="21" x2="5.5" y2="16"/>
				<line class="st1" x1="8" y1="18.5" x2="3" y2="18.5"/>
			</g>
			<g>
				<polyline class="st1" points="14,10.3 14,12.4 11,13.4 				"/>
				<path class="st1" d="M13,17.5h10.5V16c0-1-0.6-1.9-1.6-2.2L18,12.4v-2"/>
				<path class="st1" d="M16,1.5c2.2,0,3.9,2.1,3.9,4.7c0,2.6-1.8,4.7-3.9,4.7c-2.2,0-3.9-2.1-3.9-4.7C12.1,3.6,13.8,1.5,16,1.5z"/>
				<path class="st1" d="M19.9,5.5c-0.5,0.3-1,0.4-1.5,0.4c-1.1,0-2.5-0.7-3-1.5c-0.7,1.3-1.6,1.8-2.9,1.5c-0.1,0-0.2,0-0.4,0"/>
				<path class="st1" d="M9.5,11c-2.2,0-3.9-2.1-3.9-4.7c0-2.6,1.8-4.7,3.9-4.7"/>
				<path class="st1" d="M8.9,4.3C8.2,5.6,7.3,6.1,6,5.8c-0.1,0-0.2,0-0.4,0"/>
				<line class="st1" x1="7.5" y1="10.3" x2="7.5" y2="12"/>
			</g>
		</g>
	</g>
	<g id="New_icons_1_">
	</g>
</g>
<g id="Invisible_Shape">
	<rect x="0" y="0" class="st2" width="24" height="24"/>
</g>
</svg>
